# xmcd CD database file
#
# Track frame offsets:
#	150
#	18187
#	34282
#	53724
#	69660
#	85225
#	105098
#	118989
#	132837
#	147916
#	164294
#	180631
#	195266
#	211388
#	225219
#	236969
#	249903
#	261827
#
# Disc length: 3724 seconds
#
# Revision: 1
# Processed by: cddbd v1.4PL0 Copyright (c) Steve Scherf et al.
# Submitted via: CDex 1.50beta9
#
DISCID=ee0e8a12
DTITLE=Various Artist - Ãß¾ï CD3
DYEAR=2001
DGENRE=Blues
TTITLE0=±è¹Ì¼º-¾Æ½¬¿ò
TTITLE1=±è¼öÈñ-¸Û¿¡
TTITLE2=±è»ó¹è-¾ÈµÅ¿ä ¾ÈµÅ
TTITLE3=°èÀº¼÷-±'Ù¸®´Â ¿©½É
TTITLE4=¹ÚÀ±°æ-ºÎÃÊ
TTITLE5=Á¶¿ëÇÊ-¼¼¿ùÀÌ °¡¸é
TTITLE6=±è¼öÈñ-ÀÒ¾î¹ö¸° Á¤
TTITLE7=±è¿¬ÀÚ-¼öÀºµî
TTITLE8=¹®Èñ¿Á-¼ºÀº ±èÀÌ¿ä
TTITLE9=±è»ó¹è-¸î¹ÌÅÍ ¾Õ¿¡´Ù µÎ°í
TTITLE10=ÀÌ¸íµÎ-ÁüÀÌµÈ »ç¶û
TTITLE11=Çö´ç-¿©ÀÚ´Â ¸ð¸£Áö
TTITLE12=¹®ÁÖ¶õ-µ¿¼÷ÀÇ ³ë·¡
TTITLE13=³ªÈÆ¾Æ-¹°·¹¹æ¾Æ µµ´Âµ¥
TTITLE14=±èÃßÀÚ-´ÔÀº ¸Õ °÷¿¡
TTITLE15=±è¼öÈñ-³Ê¹« ÇÕ´Ï´Ù
TTITLE16=³ªÈÆ¿¡ ¿ï±ä ¿Ö ¿ï¾î
TTITLE17=±èÁ¤¼ö-´ç½Å
EXTD=YEAR: 2001
EXTT0=
EXTT1=
EXTT2=
EXTT3=
EXTT4=
EXTT5=
EXTT6=
EXTT7=
EXTT8=
EXTT9=
EXTT10=
EXTT11=
EXTT12=
EXTT13=
EXTT14=
EXTT15=
EXTT16=
EXTT17=
PLAYORDER=
